<svg width="142" height="44" viewBox="0 0 142 44" fill="none" xmlns="http://www.w3.org/2000/svg">
<g id="&#235;&#161;&#156;&#234;&#179;&#160;" clip-path="url(#clip0_562_4646)">
<path id="Vector" d="M22.0997 44C9.87976 44 0 34.1784 0 22.0303C0 9.8823 9.87976 0 22.0997 0C34.3197 0 44.2605 9.82667 44.2605 22.0303C44.2605 34.234 34.2587 44 22.0997 44ZM9.04543 22.0303C9.04543 29.1159 14.9723 35.0078 22.0997 35.0078C29.2272 35.0078 35.037 29.1159 35.037 22.0303C35.037 14.9448 29.2272 8.99218 22.0997 8.99218C14.9723 8.99218 9.04543 14.9448 9.04543 22.0303Z" fill="#00B57F"/>
<path id="Vector_2" d="M91.5381 18.8037C88.0837 18.7885 78.9111 18.7582 74.3477 18.748C73.6151 18.748 72.9436 19.1375 72.5824 19.7646L69.9471 24.3366C69.3671 25.348 70.0997 26.6023 71.2698 26.6023H83.0625C81.2056 31.4777 76.4844 35.0028 70.9697 35.0028C63.8422 35.0028 57.9154 29.1108 57.9154 22.0253C57.9154 14.9398 63.8422 8.98713 70.9697 8.98713C75.5484 8.98713 79.5827 11.4451 81.8822 15.0814C82.2637 15.6832 82.9098 16.0625 83.6221 16.0625H89.4116C90.8818 16.0625 91.8688 14.5605 91.2786 13.2202C90.9836 12.5526 90.658 11.9002 90.3019 11.268C86.4965 4.53655 79.2316 0 70.9697 0C58.6123 0 48.6461 10.0492 48.875 22.4451C49.0836 33.8345 58.2155 43.297 69.6571 43.9595C82.4011 44.6979 93.1356 34.6083 93.1356 22.0253C93.1356 21.4032 93.1101 20.7862 93.0592 20.1793C92.9931 19.4005 92.3317 18.8037 91.5432 18.7986L91.5381 18.8037Z" fill="#00B57F"/>
<path id="Vector_3" d="M139.171 11.2731C135.366 4.53655 128.101 0 119.839 0C107.482 0 97.5104 10.0492 97.7393 22.4451C97.9479 33.8345 107.08 43.297 118.516 43.9595C131.26 44.6979 141.995 34.6083 141.995 22.0253C141.995 18.1159 140.967 14.4441 139.171 11.268V11.2731ZM106.78 22.0303C106.78 14.0598 114.284 7.52046 122.556 9.28046C127.526 10.3375 131.418 14.3076 132.476 19.2538C133.367 23.4161 132.186 27.3862 129.77 30.3044L125.573 23.0216C125.211 22.3945 124.535 22.0051 123.807 22.0051H118.633C117.458 22.0051 116.726 23.2644 117.306 24.2809L123.227 34.5526C122.144 34.851 121.009 35.0129 119.834 35.0129C112.707 35.0129 106.78 29.1209 106.78 22.0354V22.0303Z" fill="#00B57F"/>
</g>
<defs>
<clipPath id="clip0_562_4646">
<rect width="142" height="44" fill="white"/>
</clipPath>
</defs>
</svg>
