<svg data-v-51a59fa0="" width="20" height="20" viewBox="0 0 20 20" fill="none" xmlns="http://www.w3.org/2000/svg"
    class="icon icon-search">
    <path data-v-51a59fa0="" fill-rule="evenodd" clip-rule="evenodd"
        d="M12.0804 13.3065C11.216 13.8396 10.1976 14.1472 9.10734 14.1472C5.97598 14.1472 3.4375 11.6098 3.4375 8.47985C3.4375 5.34986 5.97598 2.8125 9.10734 2.8125C12.2387 2.8125 14.7772 5.34986 14.7772 8.47985C14.7772 10.0663 14.1251 11.5004 13.0742 12.5291L16.5625 16.3383L15.6344 17.1875L12.0804 13.3065ZM13.5186 8.47985C13.5186 10.9162 11.5429 12.89 9.10734 12.89C6.67183 12.89 4.69609 10.9162 4.69609 8.47985C4.69609 6.04346 6.67183 4.06974 9.10734 4.06974C11.5429 4.06974 13.5186 6.04346 13.5186 8.47985Z"
        fill="#262D2E"></path>
</svg>